PathFileType	4	(X/Y/Z)	C:/Users/beibeiliu/ov580/test_trc/User2\sequence.11_training_dense_left.trc
DataRate	CameraRate	NumFrames	NumMarkers	Units	OrigDataRate	OrigDataStartFrame	OrigNumFrames
120	120	23	19	mm	120	1	124
Frame#	Time	ThumbCMC			ThumbMCP			ThumbIP			ThumbTip			IndexMCP			IndexPIP			IndexTip			MiddleMCP			MiddlePIP			MiddleTip			RingMCP			RingPIP			RingTip			PinkyMCP			PinkyPIP			PinkyTip			BackHand1			BackHand2			BackHand3	
		X0	Y0	Z0	X1	Y1	Z1	X2	Y2	Z2	X3	Y3	Z3	X4	Y4	Z4	X5	Y5	Z5	X6	Y6	Z6	X7	Y7	Z7	X8	Y8	Z8	X9	Y9	Z9	X10	Y10	Z10	X11	Y11	Z11	X12	Y12	Z12	X13	Y13	Z13	X14	Y14	Z14	X15	Y15	Z15	X16	Y16	Z16	X17	Y17	Z17	X18	Y18	Z18	
0	0	-147.255	-16.69	-21.0555	-125.322	-48.8482	-36.2504	-117.147	-79.7059	-57.3635	-136.878	-103.88	-72.5253	-162.275	-20.0656	-101.937	-150.234	-22.1305	-126.19	-140.617	-25.4847	-157.004	-185.197	-40.4102	-109.179	-181.208	-53.3196	-139.21	-175.032	-70.0398	-166.414	-181.067	-73.6837	-97.5843	-159.705	-94.4115	-97.0721	-143.239	-94.1031	-64.0429	-186.195	-93.565	-69.1005	-160.104	-99.4633	-54.1017	-153.931	-75.2558	-31.6419	-212.212	-38.6028	-53.2056	-220.755	-25.756	-16.391	-192.067	-7.08145	-38.8693	
1	0.00833333	-156.472	-2.20258	-20.0898	-122.676	-22.5377	-29.3451	-108.119	-51.0973	-43.6683	-112.737	-80.5086	-55.9511	-157.215	-18.9049	-100.562	-142.535	-21.1949	-126.019	-129.294	-25.5272	-151.668	-168.571	-45.2835	-107.714	-157.345	-57.1344	-130.245	-141.423	-75.2873	-155.486	-160.918	-77.0962	-86.5176	-130.858	-84.4543	-79.7027	-124.565	-71.5115	-41.495	-164.104	-87.876	-58.4082	-135.006	-82.8561	-35.5154	-141.458	-60.0958	-17.6241	-206.532	-47.6995	-49.4782	-221.64	-32.6983	-22.9957	-196.2	-8.74109	-43.0583	
2	0.0166667	-169.343	12.0948	-18.2635	-131.744	4.11216	-21.7275	-101.051	-21.1568	-34.7461	-98.2435	-46.0733	-39.2091	-150.158	-7.86455	-99.9117	-136.304	-12.4547	-118.569	-120.387	-10.5515	-141.145	-156.812	-43.0129	-98.8666	-135.507	-52.3281	-121.37	-112.644	-62.8643	-140.786	-141.368	-61.8153	-76.1921	-109.492	-62.3917	-59.8763	-115.386	-47.204	-27.9573	-142.899	-77.627	-47.9511	-121.48	-62.6516	-24.0918	-137.606	-40.386	-10.634	-198.108	-50.8814	-48.8631	-218.501	-37.8682	-24.754	-202.106	-10.4002	-43.0006	
3	0.025	-181.478	23.5526	-24.1718	-145.611	24.1512	-22.5123	-111.659	10.172	-28.187	-96.9341	-11.4106	-30.4409	-152.318	-0.17839	-96.9452	-135.288	5.10185	-118.539	-118.726	0.913801	-134.898	-148.497	-30.3366	-93.2932	-120.105	-37.4515	-114.093	-93.395	-43.9346	-128.029	-127.486	-43.941	-68.4765	-101.548	-35.8471	-49.2364	-111.533	-19.344	-22.775	-133.193	-55.3777	-42.2184	-115.238	-35.05	-19.853	-137.413	-18.6279	-3.30982	-187.945	-47.6414	-48.8535	-215.458	-45.3717	-26.2267	-204.961	-10.5356	-48.0192	
4	0.0333333	-199.643	22.933	-24.7503	-161.862	38.8314	-26.6046	-126.105	37.0239	-28.4879	-103.675	16.5456	-30.2842	-162.325	9.07158	-95.979	-145.338	13.4991	-115.247	-127.289	19.0377	-135.98	-142.897	-18.5849	-96.3877	-113.821	-17.2561	-111.503	-88.8365	-17.6355	-122.196	-123.086	-29.5234	-61.6074	-102.218	-7.60153	-44.5223	-120.862	4.12146	-16.4662	-123.56	-39.1072	-34.9838	-117.067	-12.4139	-18.7493	-143.788	-1.53915	-2.23475	-183.244	-46.4333	-47.9003	-211.606	-44.1899	-29.1694	-207.721	-14.3273	-49.0553	
5	0.0416667	-208.228	21.9333	-32.7027	-179.414	44.7155	-33.3639	-141.5	47.9561	-37.8564	-115.949	36.0986	-37.3779	-172.45	12.6032	-99.5219	-151.67	18.2635	-122.619	-139.016	27.5461	-141.204	-143.963	-12.7101	-96.2407	-119.655	-4.40924	-113.302	-90.3903	0.561352	-123.998	-123.827	-14.6291	-64.259	-107.618	10.4868	-47.109	-125.959	20.9789	-21.7821	-123.488	-21.6194	-39.6894	-121.237	4.85144	-22.9565	-150.403	8.11995	-7.18594	-182.838	-41.6772	-47.6513	-206.675	-48.7327	-27.2002	-212.643	-15.9693	-51.8163	
6	0.05	-218.109	18.8603	-39.051	-191.306	46.404	-43.013	-158.714	53.764	-45.5215	-131.062	45.0247	-48.1315	-177.023	7.75593	-109.45	-168.566	18.1406	-127.939	-152.587	24.8844	-150.349	-149.172	-11.4398	-102.901	-130.366	-0.826828	-120.567	-101.545	9.27795	-137.968	-133.084	-6.34925	-74.3201	-115.898	19.6401	-60.9771	-138.425	33.4861	-32.35	-124.508	-12.5391	-44.6976	-130.966	17.2156	-27.0224	-159.2	13.6783	-15.4723	-181.356	-40.2608	-49.3682	-202.825	-53.141	-26.6042	-214.538	-25.9571	-53.4656	
7	0.0583333	-228.034	10.5327	-41.3579	-203.357	40.9479	-50.9095	-167.271	53.5648	-63.3436	-139.749	47.4898	-65.0734	-190.349	-1.47455	-116.572	-181.587	9.36154	-141.576	-169.437	13.1346	-161.531	-160.478	-16.9116	-112.294	-141.559	-7.82736	-132.392	-117.637	6.32695	-156.164	-139.912	-7.66892	-86.0868	-123.547	19.4079	-74.2003	-142.611	32.4254	-47.8372	-128.151	-8.41589	-56.4149	-136.114	18.5306	-42.1583	-167.64	11.6415	-27.0287	-179.251	-47.4309	-51.5783	-200.426	-56.4826	-29.5741	-219.828	-32.3231	-58.1078	
8	0.0666667	-231.445	3.99117	-48.559	-209.035	31.9059	-63.0493	-178.447	42.3598	-76.021	-149.072	36.5927	-82.7534	-204.291	-15.1091	-121.551	-197.088	-8.04342	-151.199	-191.414	-1.76442	-177.501	-175.492	-29.9679	-118.679	-153.183	-23.3032	-146.505	-135.966	-12.9731	-169.462	-147.455	-15.9669	-98.7517	-134.119	12.6909	-92.5625	-155.578	27.4499	-64.6908	-136.506	-17.3254	-68.7203	-141.826	14.7114	-59.1229	-170.512	10.0826	-39.5879	-184.855	-51.0122	-58.3476	-202.73	-60.8685	-28.3974	-223.376	-39.5365	-57.7795	
9	0.075	-237.148	-3.74408	-51.22	-217.597	26.7009	-74.1876	-189.242	36.7253	-91.9707	-161.398	27.5742	-96.6205	-219.478	-28.6938	-127.373	-213.937	-27.6359	-151.901	-210.295	-26.2697	-180.853	-190.447	-44.0023	-127.504	-175.971	-40.9107	-155.166	-158.345	-35.4621	-180.458	-161.897	-27.3801	-112.154	-144.567	-1.0701	-109.49	-162.444	16.7215	-80.8793	-149.624	-27.4761	-83.3182	-149.341	7.07573	-74.3984	-174.752	4.70619	-55.7865	-190.826	-60.1063	-60.7692	-206.414	-65.2706	-33.7391	-232.178	-46.5186	-58.4962	
10	0.0833333	-245.102	-7.68633	-57.0552	-225.374	16.5108	-80.7908	-197.073	22.8781	-103.949	-170.494	14.0098	-115.05	-234.831	-42.4176	-129.736	-236.952	-41.6984	-155.249	-234.004	-45.3774	-185.271	-207.477	-58.8053	-132.141	-197.392	-58.3956	-158.885	-180.74	-58.9783	-186.556	-173.519	-44.43	-116.645	-160.243	-16.1438	-122.911	-174.161	5.82875	-93.3895	-162.189	-40.4229	-94.1888	-158.126	-5.55483	-91.6229	-180.285	-2.98297	-68.8801	-202.384	-67.7159	-63.1475	-214.365	-68.4092	-35.4919	-240.609	-53.7858	-58.6218	
11	0.0916667	-246.515	-8.08208	-53.6298	-229.352	15.8563	-84.6073	-203.632	16.5418	-111.451	-180.572	1.75388	-121.259	-254.384	-45.7031	-128.331	-258.638	-47.0862	-155.497	-259.201	-51.0118	-179.5	-228.942	-65.8997	-129.44	-220.871	-71.5394	-161.535	-211.556	-74.2423	-193.504	-193.678	-56.6824	-121.212	-178.853	-30.8204	-134.074	-178.702	-6.44103	-106.752	-175.849	-49.7805	-106.139	-168.246	-20.9456	-104.776	-184.274	-10.1469	-75.2855	-216.349	-73.6047	-66.1425	-223.061	-72.0293	-32.9446	-251.78	-50.1243	-58.4409	
12	0.1	-243.143	-4.74431	-56.2752	-221.639	10.2957	-83.7143	-199.616	9.90237	-114.845	-182.088	-8.73771	-130.225	-269.024	-37.9628	-124.649	-276.9	-37.076	-149.277	-280.334	-40.5771	-173.315	-251.232	-64.0403	-127.961	-248.551	-72.8335	-160.357	-243.786	-78.4078	-188.14	-210.158	-65.1676	-124.619	-192.454	-39.9578	-139.642	-183.867	-17.152	-114.041	-188.661	-63.9054	-106.045	-174.277	-34.9151	-110.666	-186.469	-17.3387	-81.3907	-231.5	-69.399	-67.2179	-233.641	-67.3549	-29.8095	-256.518	-43.7306	-52.038	
13	0.108333	-229.638	3.78877	-49.1856	-208.253	12.5264	-85.1008	-191.926	1.60983	-116.715	-181.268	-20.967	-132.404	-270.205	-23.4959	-115.282	-280.863	-18.3135	-139.084	-290.623	-16.9168	-168.726	-266.267	-52.6363	-123.14	-271.375	-56.9698	-153.853	-272.65	-62.1454	-182.157	-227.819	-62.225	-126.083	-205.688	-50.3478	-141.91	-186.224	-27.7381	-120.851	-203.727	-66.3989	-111.926	-179.356	-42.7901	-110.909	-184.495	-26.5505	-84.7485	-240.828	-64.5201	-64.4932	-241.026	-63.3304	-29.3933	-257.68	-32.8297	-44.4306	
14	0.116667	-213.981	4.61424	-45.8328	-192.148	7.08432	-79.1388	-181.758	-6.45185	-113.624	-181.922	-30.211	-130.635	-265.608	-3.90168	-111.319	-273.938	4.53112	-133.454	-283.223	12.1338	-159.578	-269.176	-31.908	-115.206	-279.145	-32.9593	-146.213	-287.273	-38.5528	-180.213	-240.017	-54.5853	-123.14	-214.318	-50.0945	-142.169	-189.224	-37.2549	-123.241	-214.63	-72.053	-111.858	-186.97	-57.637	-114.968	-180.118	-39.2245	-83.1326	-248.238	-60.7456	-58.9	-243.115	-56.6432	-27.993	-251.275	-23.5603	-42.3076	
15	0.125	-196.404	-3.49357	-43.5837	-178.95	-7.38349	-79.3179	-176.474	-20.6697	-116.25	-181.069	-40.7771	-131.641	-248.424	12.5849	-104.195	-254.117	26.8074	-126.6	-265.686	35.0987	-153.978	-264.471	-17.0931	-110.214	-275.968	-8.9315	-143.445	-285.767	-9.45482	-170.101	-246.16	-45.505	-119.491	-222.24	-46.7939	-140.97	-191.326	-48.8344	-122.395	-227.343	-71.4914	-110.595	-195.869	-64.4555	-114.822	-183.341	-51.6417	-85.8914	-251.197	-48.3285	-59.6424	-245.5	-50.9706	-25.1608	-242.636	-13.2024	-40.5738	
16	0.133333	-181.517	-13.8955	-40.5911	-168.234	-20.8715	-81.2934	-171.299	-33.8221	-112.666	-189.634	-50.3263	-131.687	-227.264	17.8244	-99.5042	-230.845	33.4719	-126.106	-236.383	46.9406	-146.273	-252.495	-4.47655	-105.715	-264.33	6.05188	-136.741	-273.991	12.6018	-163.815	-242.719	-32.4136	-118.038	-222.618	-46.5816	-139.983	-193.225	-58.1691	-117.892	-234.611	-65.0442	-109.405	-204.854	-71.1782	-114.142	-189.339	-64.8814	-86.697	-249.316	-39.1497	-52.8084	-244.778	-41.3271	-23.8592	-229.517	-10.0362	-38.3716	
17	0.141667	-170.713	-24.4543	-41.9195	-160.37	-36.5573	-76.1743	-169.002	-47.6155	-110.667	-191.27	-58.5339	-129.815	-204.972	17.8166	-97.8348	-207.486	32.1581	-125.41	-208.916	45.9483	-145.598	-238.838	6.50137	-107.155	-245.06	17.3559	-133.623	-257.643	26.3351	-165.086	-240.685	-28.3079	-116.365	-225.489	-45.3944	-137.689	-197.721	-61.227	-115.68	-240.345	-57.7752	-104.285	-211.266	-76.8143	-110.42	-196.118	-74.2671	-85.9456	-243.284	-27.8247	-52.5799	-240.858	-35.2159	-21.7844	-216.443	-10.1756	-35.4085	
18	0.15	-162.393	-33.195	-42.0446	-156.067	-48.7112	-73.5374	-169.151	-59.8533	-111.653	-193.289	-66.4012	-121.42	-189.13	9.68598	-99.6991	-185.852	23.7924	-125.343	-188.142	35.7271	-150.088	-222.168	6.34331	-104.676	-231.471	17.2152	-138.075	-237.762	23.7976	-162.523	-233.319	-27.0216	-112.324	-222.17	-51.9714	-133.865	-199.669	-71.2649	-108.256	-239.77	-56.2876	-100.144	-213.521	-78.3094	-106.07	-197.197	-78.3327	-82.2385	-233.075	-22.9333	-49.2222	-232.938	-27.899	-16.3103	-203.446	-12.4447	-34.6047	
19	0.158333	-157.84	-39.6896	-37.4933	-147.439	-58.9024	-70.8995	-161.723	-72.3541	-102.394	-186.743	-79.3796	-117.804	-178.84	2.7913	-105.912	-172.638	9.40596	-126.889	-170.731	18.6512	-155.25	-211.241	-0.441248	-110.938	-212.067	5.63458	-140.845	-220.687	7.91978	-169.796	-225.549	-36.5554	-114.895	-213.922	-59.2904	-129.007	-194.098	-78.9168	-100.902	-235.275	-60.9119	-95.2159	-212.646	-87.0969	-99.2318	-194.95	-85.9493	-71.508	-226.698	-20.6254	-51.2617	-222.955	-26.6178	-14.6842	-189.588	-10.5892	-33.7549	
20	0.166667	-153.264	-39.1454	-30.041	-140.302	-63.5966	-63.349	-150.2	-83.6152	-93.4883	-175.47	-94.3635	-106.962	-170.416	-10.798	-103.871	-163.478	-6.23144	-134.079	-158.345	-1.7982	-161.377	-203.327	-18.9798	-112.225	-200.564	-17.131	-144.603	-205.687	-21.2935	-177.313	-213.455	-52.4738	-110.01	-197.896	-82.2325	-120.181	-180.163	-89.9685	-91.3634	-221.904	-74.7386	-90.3636	-198.305	-98.2144	-86.7181	-181.59	-89.4537	-60.8323	-220.073	-29.5274	-52.0355	-219.404	-26.362	-19.8902	-189.949	-12.5823	-38.9464	
21	0.175	-148.357	-34.0761	-29.5957	-131.116	-62.52	-46.876	-132.208	-90.4342	-75.3858	-150.747	-107.166	-86.4595	-161.148	-22.637	-106.986	-150.398	-21.4257	-131.172	-144.294	-21.5826	-157.191	-188.835	-36.1537	-117.558	-188.141	-45.9873	-147.732	-186.577	-54.4577	-174.842	-197.816	-70.7505	-104.743	-176.401	-98.0126	-108.953	-161.514	-101.995	-77.5412	-201.972	-91.6652	-83.8106	-175.14	-106.421	-71.2188	-167.333	-92.6539	-46.8127	-214.597	-39.124	-55.098	-219.273	-30.6809	-19.7958	-188.056	-15.55	-40.0957	
22	0.183333	-148.05	-28.1214	-22.5753	-126.32	-58.3471	-39.9372	-117.772	-88.8348	-59.5679	-131.975	-112.532	-73.1423	-153.13	-28.6616	-101.055	-141.151	-32.4811	-127.033	-132.175	-36.6192	-151.446	-176.673	-51.6981	-112.436	-172.976	-66.8519	-138.064	-164.922	-81.9861	-169.631	-179.137	-81.5871	-95.97	-157.618	-108.202	-95.2672	-140.163	-102.507	-63.6705	-185.775	-103.512	-71.2608	-156.963	-109.154	-53.6836	-152.611	-89.922	-31.3369	-211.53	-50.101	-54.6863	-221.119	-34.351	-22.422	-188.866	-16.597	-42.5171	
